<svg id="Layer_1" xmlns="http://www.w3.org/2000/svg" viewBox="0 0 594 594"><style>.st0{fill:#D82A2E;} .st1{fill:#FFC425;}</style><circle class="st0" cx="297" cy="297" r="297"/><path class="st1" d="M363.7 157.5c28 0 50.7 118.2 50.7 263.9H455c0-157-40.9-284.2-91.4-284.2-28.7 0-54.3 38.2-71.1 98-16.7-59.8-42.4-98-71.1-98-50.4 0-91.4 127.2-91.4 284.2h40.6c0-145.7 22.7-263.9 50.7-263.9s50.8 109.1 50.8 243.6h40.6c.3-134.5 23-243.6 51-243.6zM475.4 401.2c5.5 0 10.1 4.4 10.1 10.1 0 5.8-4.6 10.2-10.1 10.2s-10.2-4.4-10.2-10.2c0-5.8 4.7-10.1 10.2-10.1zm0 18.8c4.7 0 8.3-3.7 8.3-8.7 0-4.9-3.6-8.6-8.3-8.6-4.7 0-8.3 3.7-8.3 8.6s3.6 8.7 8.3 8.7zm-3.9-14.6h4.6c2.8 0 4.1 1.1 4.1 3.4 0 2.2-1.3 3-3.1 3.2l3.4 5.2h-2l-3.2-5.1h-1.9v5.1h-1.8v-11.8h-.1zm1.8 5.2h1.9c1.6 0 3.1-.1 3.1-2 0-1.6-1.4-1.8-2.6-1.8h-2.4v3.8z"/></svg>